<svg width="219" height="38" viewBox="0 0 219 38" fill="none" xmlns="http://www.w3.org/2000/svg">
<path d="M208.219 20.4375C208.198 20.5625 208.182 20.6875 208.172 20.8125C208.161 20.9375 208.156 21.0625 208.156 21.1875C208.156 21.5625 208.208 21.9219 208.312 22.2656C208.427 22.599 208.589 22.8958 208.797 23.1562C209.016 23.4062 209.281 23.6042 209.594 23.75C209.917 23.8958 210.281 23.9688 210.688 23.9688C212.052 23.9688 213.37 23.5052 214.641 22.5781C215.911 21.651 217.177 20.1823 218.438 18.1719L218.969 18.6406C218.281 19.7865 217.583 20.7552 216.875 21.5469C216.167 22.3281 215.458 22.9635 214.75 23.4531C214.052 23.9427 213.365 24.2969 212.688 24.5156C212.01 24.7344 211.365 24.8438 210.75 24.8438C210.302 24.8438 209.828 24.7812 209.328 24.6562C208.828 24.5312 208.365 24.3229 207.938 24.0312C207.521 23.7396 207.177 23.349 206.906 22.8594C206.625 22.3698 206.484 21.7604 206.484 21.0312C206.484 20.25 206.62 19.5 206.891 18.7812C207.151 18.0521 207.495 17.375 207.922 16.75C208.349 16.125 208.839 15.5573 209.391 15.0469C209.943 14.526 210.5 14.0833 211.062 13.7188C211.635 13.3542 212.193 13.0729 212.734 12.875C213.276 12.6667 213.755 12.5625 214.172 12.5625C214.443 12.5625 214.719 12.6042 215 12.6875C215.281 12.7708 215.531 12.901 215.75 13.0781C215.979 13.2552 216.161 13.4896 216.297 13.7812C216.443 14.0729 216.516 14.4219 216.516 14.8281C216.516 15.3802 216.385 15.901 216.125 16.3906C215.875 16.8698 215.536 17.3177 215.109 17.7344C214.682 18.1406 214.188 18.5104 213.625 18.8438C213.062 19.1667 212.474 19.4427 211.859 19.6719C211.245 19.901 210.625 20.0833 210 20.2188C209.375 20.3542 208.781 20.4271 208.219 20.4375ZM208.344 19.7656C209.042 19.6927 209.698 19.5469 210.312 19.3281C210.927 19.1094 211.49 18.8438 212 18.5312C212.51 18.2083 212.964 17.8594 213.359 17.4844C213.766 17.1094 214.104 16.7292 214.375 16.3438C214.646 15.9583 214.854 15.5885 215 15.2344C215.146 14.8802 215.219 14.5625 215.219 14.2812C215.219 14 215.141 13.776 214.984 13.6094C214.839 13.4427 214.661 13.3594 214.453 13.3594C213.995 13.3594 213.479 13.526 212.906 13.8594C212.333 14.1823 211.76 14.6354 211.188 15.2188C210.615 15.7917 210.073 16.4688 209.562 17.25C209.062 18.0312 208.656 18.8698 208.344 19.7656Z" fill="#B8860B"/>
<path d="M200.438 20.5938C199.958 21.1562 199.484 21.6771 199.016 22.1562C198.547 22.625 198.078 23.0312 197.609 23.375C197.151 23.7083 196.693 23.9688 196.234 24.1562C195.776 24.3542 195.312 24.4531 194.844 24.4531C194.448 24.4531 194.089 24.3802 193.766 24.2344C193.453 24.099 193.182 23.9062 192.953 23.6562C192.714 23.3958 192.531 23.0833 192.406 22.7188C192.281 22.3438 192.219 21.9271 192.219 21.4688C192.219 20.75 192.38 20.0104 192.703 19.25C193.016 18.4896 193.411 17.75 193.891 17.0312C194.38 16.3125 194.917 15.6302 195.5 14.9844C196.094 14.3385 196.656 13.7656 197.188 13.2656L197.859 13.7344C197.484 14.2865 197.062 14.9115 196.594 15.6094C196.135 16.3073 195.698 17.0312 195.281 17.7812C194.875 18.5208 194.531 19.2656 194.25 20.0156C193.969 20.7552 193.828 21.4427 193.828 22.0781C193.828 22.5052 193.906 22.8698 194.062 23.1719C194.229 23.474 194.542 23.625 195 23.625C195.5 23.625 196.047 23.4271 196.641 23.0312C197.245 22.6354 197.859 22.1198 198.484 21.4844C199.12 20.849 199.75 20.1354 200.375 19.3438C201.01 18.5417 201.609 17.7344 202.172 16.9219C202.734 16.1094 203.245 15.3333 203.703 14.5938C204.172 13.8542 204.552 13.224 204.844 12.7031L205.984 13.2656C205.38 14.4531 204.797 15.5625 204.234 16.5938C203.682 17.6146 203.188 18.5365 202.75 19.3594C202.323 20.1719 201.979 20.8802 201.719 21.4844C201.469 22.0885 201.344 22.5677 201.344 22.9219C201.344 23.0677 201.375 23.1875 201.438 23.2812C201.5 23.375 201.599 23.4219 201.734 23.4219C202.12 23.4323 202.542 23.2656 203 22.9219C203.469 22.5781 203.938 22.1458 204.406 21.625C204.885 21.1042 205.349 20.5365 205.797 19.9219C206.255 19.2969 206.667 18.7135 207.031 18.1719L207.594 18.6094C207.531 18.7135 207.401 18.9271 207.203 19.25C207.005 19.5729 206.76 19.9427 206.469 20.3594C206.177 20.776 205.844 21.2135 205.469 21.6719C205.094 22.1302 204.698 22.5521 204.281 22.9375C203.865 23.3125 203.432 23.625 202.984 23.875C202.536 24.1146 202.094 24.2344 201.656 24.2344C201.385 24.2344 201.141 24.1875 200.922 24.0938C200.714 24 200.536 23.875 200.391 23.7188C200.245 23.5625 200.13 23.3802 200.047 23.1719C199.964 22.9635 199.922 22.7448 199.922 22.5156C199.922 22.2448 199.964 21.9479 200.047 21.625C200.141 21.3021 200.271 20.9583 200.438 20.5938Z" fill="#B8860B"/>
<path d="M189.922 14.6875C190.026 14.5208 190.135 14.3438 190.25 14.1562C190.375 13.9583 190.484 13.7865 190.578 13.6406L191.125 13.875C191.115 13.8854 191.047 14.0312 190.922 14.3125C190.797 14.5833 190.625 14.9531 190.406 15.4219C190.188 15.8802 189.927 16.4271 189.625 17.0625C189.333 17.6875 189.021 18.3594 188.688 19.0781C188.354 19.7969 188.005 20.5469 187.641 21.3281C187.276 22.1094 186.917 22.8854 186.562 23.6562C186.583 23.6458 186.708 23.5833 186.938 23.4688C187.177 23.3542 187.474 23.1875 187.828 22.9688C188.193 22.75 188.604 22.4844 189.062 22.1719C189.521 21.849 189.99 21.4896 190.469 21.0938C190.958 20.6875 191.432 20.2396 191.891 19.75C192.359 19.2604 192.781 18.7344 193.156 18.1719L193.719 18.6094C193.146 19.4844 192.531 20.25 191.875 20.9062C191.229 21.5521 190.604 22.1042 190 22.5625C189.396 23.0208 188.849 23.3906 188.359 23.6719C187.87 23.9427 187.5 24.1354 187.25 24.25C187.271 24.5521 187.286 24.8594 187.297 25.1719C187.318 25.4844 187.328 25.7969 187.328 26.1094C187.328 27.0573 187.271 28 187.156 28.9375C187.052 29.8854 186.896 30.7865 186.688 31.6406C186.49 32.5052 186.25 33.3073 185.969 34.0469C185.688 34.7865 185.375 35.4271 185.031 35.9688C184.688 36.5104 184.318 36.9375 183.922 37.25C183.526 37.5625 183.115 37.7188 182.688 37.7188C182.219 37.7188 181.823 37.6354 181.5 37.4688C181.177 37.3125 180.911 37.099 180.703 36.8281C180.505 36.5677 180.359 36.2604 180.266 35.9062C180.172 35.5625 180.125 35.2031 180.125 34.8281C180.125 34.224 180.234 33.5469 180.453 32.7969C180.672 32.0573 180.984 31.2188 181.391 30.2812C181.797 29.3542 182.281 28.3125 182.844 27.1562C183.417 26 184.052 24.7083 184.75 23.2812C184.188 23.7188 183.609 24.0625 183.016 24.3125C182.432 24.5625 181.812 24.6875 181.156 24.6875C180.823 24.6875 180.458 24.6302 180.062 24.5156C179.677 24.401 179.312 24.2188 178.969 23.9688C178.635 23.7083 178.354 23.375 178.125 22.9688C177.896 22.5625 177.781 22.0625 177.781 21.4688C177.781 20.8333 177.896 20.1823 178.125 19.5156C178.354 18.849 178.667 18.1979 179.062 17.5625C179.469 16.9271 179.948 16.3281 180.5 15.7656C181.052 15.2031 181.651 14.7135 182.297 14.2969C182.953 13.8698 183.641 13.5365 184.359 13.2969C185.078 13.0469 185.807 12.9219 186.547 12.9219C187.13 12.9219 187.615 12.9792 188 13.0938C188.396 13.1979 188.719 13.3385 188.969 13.5156C189.229 13.6823 189.427 13.8698 189.562 14.0781C189.708 14.2865 189.828 14.4896 189.922 14.6875ZM189.297 15.5C189.266 15.3125 189.214 15.125 189.141 14.9375C189.078 14.75 188.974 14.5833 188.828 14.4375C188.693 14.2812 188.505 14.1562 188.266 14.0625C188.036 13.9688 187.734 13.9219 187.359 13.9219C186.745 13.9219 186.12 14.0365 185.484 14.2656C184.859 14.4844 184.255 14.7917 183.672 15.1875C183.089 15.5729 182.542 16.026 182.031 16.5469C181.521 17.0573 181.078 17.6042 180.703 18.1875C180.328 18.7708 180.031 19.375 179.812 20C179.594 20.6146 179.484 21.2188 179.484 21.8125C179.484 22.4688 179.646 22.974 179.969 23.3281C180.292 23.6823 180.755 23.8594 181.359 23.8594C182.016 23.8594 182.714 23.6771 183.453 23.3125C184.193 22.9375 184.922 22.3958 185.641 21.6875C186.245 20.6562 186.849 19.6198 187.453 18.5781C188.068 17.526 188.682 16.5 189.297 15.5ZM186.406 24C185.865 25.125 185.328 26.224 184.797 27.2969C184.276 28.3802 183.786 29.3802 183.328 30.2969C182.797 31.3385 182.396 32.3021 182.125 33.1875C181.854 34.0729 181.719 34.8177 181.719 35.4219C181.719 35.6094 181.734 35.7865 181.766 35.9531C181.797 36.1302 181.844 36.2865 181.906 36.4219C181.979 36.5677 182.068 36.6823 182.172 36.7656C182.286 36.849 182.422 36.8906 182.578 36.8906C182.911 36.8906 183.24 36.7135 183.562 36.3594C183.885 36.0156 184.188 35.5521 184.469 34.9688C184.76 34.3854 185.031 33.7083 185.281 32.9375C185.531 32.1771 185.745 31.3802 185.922 30.5469C186.099 29.7135 186.24 28.875 186.344 28.0312C186.448 27.1875 186.5 26.3906 186.5 25.6406C186.5 25.3698 186.49 25.099 186.469 24.8281C186.448 24.5677 186.427 24.2917 186.406 24Z" fill="#B8860B"/>
<path d="M180.078 10.1406C180.078 10.349 180.026 10.5677 179.922 10.7969C179.818 11.0156 179.682 11.2135 179.516 11.3906C179.359 11.5677 179.182 11.7135 178.984 11.8281C178.786 11.9427 178.589 12 178.391 12C178.214 12 178.078 11.9375 177.984 11.8125C177.891 11.6771 177.844 11.5156 177.844 11.3281C177.844 11.1615 177.875 10.9635 177.938 10.7344C178 10.5052 178.094 10.2917 178.219 10.0938C178.344 9.88542 178.495 9.70833 178.672 9.5625C178.849 9.41667 179.052 9.34375 179.281 9.34375C179.5 9.34375 179.688 9.42708 179.844 9.59375C180 9.76042 180.078 9.94271 180.078 10.1406ZM177.156 13.6094C177.021 13.8802 176.828 14.2396 176.578 14.6875C176.339 15.125 176.078 15.6094 175.797 16.1406C175.516 16.6615 175.229 17.2135 174.938 17.7969C174.646 18.3698 174.38 18.9323 174.141 19.4844C173.911 20.026 173.724 20.5365 173.578 21.0156C173.432 21.4948 173.359 21.901 173.359 22.2344C173.359 22.5365 173.422 22.7448 173.547 22.8594C173.672 22.9635 173.849 23.0156 174.078 23.0156C174.505 23.0156 174.922 22.875 175.328 22.5938C175.734 22.3125 176.135 21.9479 176.531 21.5C176.938 21.0417 177.333 20.5208 177.719 19.9375C178.104 19.3542 178.49 18.7656 178.875 18.1719L179.438 18.6094C179.135 19.151 178.792 19.7292 178.406 20.3438C178.031 20.9583 177.609 21.5312 177.141 22.0625C176.672 22.5833 176.156 23.0156 175.594 23.3594C175.031 23.7031 174.417 23.875 173.75 23.875C173.125 23.875 172.646 23.6875 172.312 23.3125C171.979 22.9375 171.812 22.4531 171.812 21.8594C171.812 21.1615 171.974 20.4323 172.297 19.6719C172.62 18.9115 173.021 18.1615 173.5 17.4219C173.99 16.6719 174.516 15.9531 175.078 15.2656C175.651 14.5781 176.177 13.9531 176.656 13.3906L177.156 13.6094Z" fill="#B8860B"/>
<path d="M167.703 11.1094C167.807 10.9323 167.99 10.625 168.25 10.1875C168.521 9.75 168.833 9.26562 169.188 8.73438C169.552 8.20312 169.943 7.67188 170.359 7.14062C170.786 6.59896 171.203 6.14062 171.609 5.76562L172.312 6.1875C171.865 6.92708 171.406 7.71354 170.938 8.54688C170.469 9.36979 170.005 10.224 169.547 11.1094H174.641L174.328 11.9219H169.125C168.656 12.8594 168.214 13.7917 167.797 14.7188C167.391 15.6458 167.031 16.5312 166.719 17.375C166.406 18.2188 166.161 19.0104 165.984 19.75C165.807 20.4792 165.719 21.1146 165.719 21.6562C165.719 22.3333 165.875 22.8229 166.188 23.125C166.5 23.4167 166.885 23.5625 167.344 23.5625C167.75 23.5625 168.167 23.4427 168.594 23.2031C169.021 22.9531 169.438 22.6406 169.844 22.2656C170.26 21.8906 170.651 21.4792 171.016 21.0312C171.391 20.5833 171.719 20.1615 172 19.7656C172.292 19.3698 172.531 19.026 172.719 18.7344C172.906 18.4323 173.021 18.2448 173.062 18.1719L173.641 18.6094C173.276 19.2135 172.865 19.8542 172.406 20.5312C171.948 21.2083 171.438 21.8385 170.875 22.4219C170.323 22.9948 169.719 23.474 169.062 23.8594C168.406 24.2344 167.698 24.4219 166.938 24.4219C166.469 24.4219 166.057 24.3385 165.703 24.1719C165.359 24.0052 165.068 23.776 164.828 23.4844C164.589 23.1823 164.411 22.8281 164.297 22.4219C164.172 22.0156 164.109 21.5729 164.109 21.0938C164.109 20.7812 164.161 20.3385 164.266 19.7656C164.359 19.1927 164.526 18.5156 164.766 17.7344C165.005 16.9427 165.323 16.0573 165.719 15.0781C166.125 14.099 166.635 13.0469 167.25 11.9219H164.656L164.969 11.1094H167.703Z" fill="#B8860B"/>
<path d="M161.516 15.8906C161.516 16.3385 161.438 16.7969 161.281 17.2656C161.125 17.724 160.927 18.1875 160.688 18.6562C160.448 19.1146 160.193 19.5677 159.922 20.0156C159.651 20.4635 159.396 20.8958 159.156 21.3125C158.917 21.7292 158.719 22.1302 158.562 22.5156C158.406 22.8906 158.328 23.2344 158.328 23.5469C158.328 23.7865 158.38 23.9479 158.484 24.0312C158.589 24.1146 158.703 24.1562 158.828 24.1562C159.224 24.1562 159.667 23.9635 160.156 23.5781C160.646 23.1823 161.141 22.6875 161.641 22.0938C162.151 21.5 162.656 20.8542 163.156 20.1562C163.656 19.4583 164.109 18.7969 164.516 18.1719L165.078 18.6094C164.995 18.7344 164.844 18.9844 164.625 19.3594C164.406 19.724 164.135 20.1458 163.812 20.625C163.49 21.0938 163.125 21.5885 162.719 22.1094C162.323 22.6198 161.896 23.0938 161.438 23.5312C160.979 23.9583 160.505 24.3125 160.016 24.5938C159.536 24.875 159.052 25.0156 158.562 25.0156C158.281 25.0156 158.026 24.9688 157.797 24.875C157.568 24.7812 157.37 24.651 157.203 24.4844C157.047 24.3177 156.922 24.125 156.828 23.9062C156.734 23.6771 156.688 23.4375 156.688 23.1875C156.688 22.7812 156.776 22.3438 156.953 21.875C157.141 21.3958 157.37 20.9062 157.641 20.4062C157.911 19.9062 158.208 19.4062 158.531 18.9062C158.854 18.3958 159.151 17.9115 159.422 17.4531C159.693 16.9948 159.917 16.5729 160.094 16.1875C160.281 15.7917 160.375 15.4531 160.375 15.1719C160.375 14.849 160.286 14.5781 160.109 14.3594C159.943 14.1406 159.703 14.0312 159.391 14.0312C159.057 14.0312 158.672 14.1719 158.234 14.4531C157.797 14.724 157.307 15.125 156.766 15.6562C156.224 16.1875 155.63 16.8438 154.984 17.625C154.349 18.3958 153.656 19.276 152.906 20.2656C152.479 20.8385 152.062 21.3906 151.656 21.9219C151.479 22.151 151.302 22.3854 151.125 22.625C150.948 22.8646 150.771 23.1042 150.594 23.3438C150.417 23.5729 150.25 23.7917 150.094 24C149.938 24.2188 149.797 24.4062 149.672 24.5625L148.297 24L150.125 21.4844C150.385 21.1302 150.651 20.75 150.922 20.3438C151.193 19.9375 151.458 19.5208 151.719 19.0938C151.99 18.6562 152.245 18.2188 152.484 17.7812C152.724 17.3438 152.948 16.9167 153.156 16.5C153.458 15.875 153.667 15.3594 153.781 14.9531C153.896 14.5365 153.953 14.2031 153.953 13.9531C153.953 13.6719 153.901 13.4896 153.797 13.4062C153.693 13.3125 153.547 13.2656 153.359 13.2656C153.161 13.2656 152.932 13.3698 152.672 13.5781C152.422 13.776 152.161 14.0365 151.891 14.3594C151.62 14.6719 151.344 15.0312 151.062 15.4375C150.792 15.8333 150.531 16.2292 150.281 16.625C150.031 17.0208 149.797 17.3958 149.578 17.75C149.359 18.1042 149.177 18.3906 149.031 18.6094L148.469 18.1719C149 17.3385 149.479 16.5781 149.906 15.8906C150.344 15.1927 150.76 14.5938 151.156 14.0938C151.562 13.5938 151.953 13.2083 152.328 12.9375C152.714 12.6562 153.12 12.5156 153.547 12.5156C153.776 12.5156 153.995 12.5625 154.203 12.6562C154.422 12.75 154.609 12.8906 154.766 13.0781C154.932 13.2552 155.062 13.474 155.156 13.7344C155.25 13.9948 155.297 14.2969 155.297 14.6406C155.297 14.9115 155.266 15.1927 155.203 15.4844C155.661 15.0365 156.089 14.6667 156.484 14.375C156.88 14.0833 157.245 13.8542 157.578 13.6875C157.911 13.5104 158.219 13.3854 158.5 13.3125C158.781 13.2396 159.036 13.2031 159.266 13.2031C159.464 13.2031 159.693 13.2396 159.953 13.3125C160.214 13.3854 160.458 13.5208 160.688 13.7188C160.917 13.9167 161.109 14.1927 161.266 14.5469C161.432 14.8906 161.516 15.3385 161.516 15.8906Z" fill="#B8860B"/>
<path d="M149.984 1.79688C150.286 1.79688 150.578 1.84896 150.859 1.95312C151.151 2.04688 151.406 2.1875 151.625 2.375C151.854 2.55208 152.036 2.77604 152.172 3.04688C152.307 3.30729 152.375 3.60417 152.375 3.9375C152.375 4.58333 152.167 5.31771 151.75 6.14062C151.333 6.96354 150.792 7.92708 150.125 9.03125C149.406 10.2083 148.729 11.3854 148.094 12.5625C147.458 13.7292 146.865 14.8594 146.312 15.9531C145.771 17.0365 145.271 18.0625 144.812 19.0312C144.365 19.9896 143.974 20.849 143.641 21.6094C144.057 21.6615 144.474 21.7031 144.891 21.7344C145.307 21.7656 145.682 21.776 146.016 21.7656L146.047 22.5781C145.974 22.5781 145.698 22.5781 145.219 22.5781C144.75 22.5677 144.109 22.5052 143.297 22.3906C142.974 23.1406 142.724 23.724 142.547 24.1406C142.38 24.5573 142.297 24.776 142.297 24.7969L140.438 24.2188L141.375 22.0781C140.677 21.9219 139.943 21.7396 139.172 21.5312C138.401 21.3229 137.615 21.0885 136.812 20.8281C136.021 20.5573 135.229 20.2552 134.438 19.9219C133.646 19.5885 132.885 19.224 132.156 18.8281C131.479 19.6094 130.745 20.3802 129.953 21.1406C129.161 21.8906 128.312 22.5677 127.406 23.1719C126.5 23.7656 125.536 24.2448 124.516 24.6094C123.505 24.9844 122.438 25.1719 121.312 25.1719C120.312 25.1719 119.312 25.0208 118.312 24.7188C117.323 24.4271 116.432 24 115.641 23.4375C114.859 22.8646 114.224 22.1719 113.734 21.3594C113.245 20.5365 113 19.6042 113 18.5625C113 17.7396 113.156 17.0156 113.469 16.3906C113.771 15.7656 114.188 15.2448 114.719 14.8281C115.26 14.4115 115.891 14.099 116.609 13.8906C117.339 13.6719 118.12 13.5625 118.953 13.5625C119.589 13.5625 120.245 13.625 120.922 13.75C121.609 13.875 122.276 14.0833 122.922 14.375C123.568 14.6667 124.177 15.0521 124.75 15.5312C125.323 16.0104 125.812 16.6042 126.219 17.3125L125.531 17.75C125.521 17.7292 125.458 17.651 125.344 17.5156C125.24 17.3698 125.078 17.1979 124.859 17C124.651 16.7917 124.38 16.5729 124.047 16.3438C123.714 16.1146 123.312 15.9062 122.844 15.7188C122.385 15.5208 121.849 15.3594 121.234 15.2344C120.63 15.099 119.943 15.0312 119.172 15.0312C118.391 15.0312 117.708 15.1667 117.125 15.4375C116.542 15.6979 116.052 16.0365 115.656 16.4531C115.271 16.8594 114.979 17.3177 114.781 17.8281C114.594 18.3385 114.5 18.8333 114.5 19.3125C114.5 19.875 114.599 20.3906 114.797 20.8594C114.995 21.3177 115.26 21.7344 115.594 22.1094C115.938 22.4844 116.333 22.8125 116.781 23.0938C117.24 23.3646 117.719 23.5938 118.219 23.7812C118.729 23.9688 119.245 24.1094 119.766 24.2031C120.297 24.2969 120.812 24.3438 121.312 24.3438C122.344 24.3438 123.333 24.1771 124.281 23.8438C125.229 23.5 126.125 23.0521 126.969 22.5C127.812 21.9375 128.604 21.3021 129.344 20.5938C130.094 19.8854 130.786 19.1615 131.422 18.4219C130.714 17.9948 130.057 17.5365 129.453 17.0469C128.859 16.5469 128.344 16.0156 127.906 15.4531C127.469 14.8802 127.125 14.2708 126.875 13.625C126.635 12.9688 126.516 12.276 126.516 11.5469C126.516 10.9427 126.625 10.375 126.844 9.84375C127.073 9.3125 127.38 8.84896 127.766 8.45312C128.161 8.04688 128.625 7.72917 129.156 7.5C129.698 7.26042 130.276 7.14062 130.891 7.14062C131.578 7.14062 132.229 7.25 132.844 7.46875C133.458 7.67708 134.042 7.96875 134.594 8.34375C135.146 8.70833 135.661 9.14583 136.141 9.65625C136.63 10.1667 137.089 10.7188 137.516 11.3125C138.682 10.0104 139.844 8.78646 141 7.64062C142.167 6.48438 143.286 5.47396 144.359 4.60938C145.432 3.74479 146.443 3.0625 147.391 2.5625C148.349 2.05208 149.214 1.79688 149.984 1.79688ZM138 12.0312C138.49 12.7812 138.938 13.5573 139.344 14.3594C139.75 15.1615 140.115 15.9479 140.438 16.7188C140.771 17.4896 141.062 18.224 141.312 18.9219C141.573 19.6094 141.797 20.2188 141.984 20.75C143.203 18.0938 144.505 15.4896 145.891 12.9375C147.276 10.3854 148.833 7.86458 150.562 5.375C150.844 4.95833 151.042 4.61458 151.156 4.34375C151.281 4.0625 151.344 3.82292 151.344 3.625C151.344 3.29167 151.203 3.04167 150.922 2.875C150.641 2.69792 150.318 2.60938 149.953 2.60938C148.797 2.60938 147.219 3.40104 145.219 4.98438C143.229 6.55729 140.823 8.90625 138 12.0312ZM127.938 12.2969C127.938 12.849 128.042 13.375 128.25 13.875C128.458 14.3646 128.745 14.8385 129.109 15.2969C129.474 15.7448 129.906 16.1719 130.406 16.5781C130.906 16.974 131.448 17.349 132.031 17.7031C132.812 16.7552 133.609 15.8021 134.422 14.8438C135.234 13.8854 136.057 12.9375 136.891 12C136.526 11.5208 136.146 11.0781 135.75 10.6719C135.365 10.2552 134.958 9.89583 134.531 9.59375C134.104 9.29167 133.661 9.05729 133.203 8.89062C132.745 8.72396 132.271 8.64062 131.781 8.64062C131.229 8.64062 130.719 8.73438 130.25 8.92188C129.781 9.10938 129.375 9.36979 129.031 9.70312C128.688 10.026 128.417 10.4115 128.219 10.8594C128.031 11.2969 127.938 11.776 127.938 12.2969ZM141.297 21.2031C141.151 20.7344 140.953 20.1667 140.703 19.5C140.464 18.8333 140.177 18.1198 139.844 17.3594C139.521 16.5885 139.151 15.8021 138.734 15C138.328 14.1979 137.88 13.4323 137.391 12.7031C136.672 13.5156 135.927 14.3698 135.156 15.2656C134.385 16.1615 133.583 17.1146 132.75 18.125C133.479 18.5312 134.24 18.901 135.031 19.2344C135.833 19.5573 136.609 19.849 137.359 20.1094C138.12 20.3594 138.839 20.5781 139.516 20.7656C140.203 20.9531 140.797 21.099 141.297 21.2031Z" fill="#B8860B"/>
<path d="M105.453 10.1406C105.453 10.349 105.401 10.5677 105.297 10.7969C105.193 11.0156 105.057 11.2135 104.891 11.3906C104.734 11.5677 104.557 11.7135 104.359 11.8281C104.161 11.9427 103.964 12 103.766 12C103.589 12 103.453 11.9375 103.359 11.8125C103.266 11.6771 103.219 11.5156 103.219 11.3281C103.219 11.1615 103.25 10.9635 103.312 10.7344C103.375 10.5052 103.469 10.2917 103.594 10.0938C103.719 9.88542 103.87 9.70833 104.047 9.5625C104.224 9.41667 104.427 9.34375 104.656 9.34375C104.875 9.34375 105.062 9.42708 105.219 9.59375C105.375 9.76042 105.453 9.94271 105.453 10.1406ZM102.531 13.6094C102.396 13.8802 102.203 14.2396 101.953 14.6875C101.714 15.125 101.453 15.6094 101.172 16.1406C100.891 16.6615 100.604 17.2135 100.312 17.7969C100.021 18.3698 99.7552 18.9323 99.5156 19.4844C99.2865 20.026 99.099 20.5365 98.9531 21.0156C98.8073 21.4948 98.7344 21.901 98.7344 22.2344C98.7344 22.5365 98.7969 22.7448 98.9219 22.8594C99.0469 22.9635 99.224 23.0156 99.4531 23.0156C99.8802 23.0156 100.297 22.875 100.703 22.5938C101.109 22.3125 101.51 21.9479 101.906 21.5C102.312 21.0417 102.708 20.5208 103.094 19.9375C103.479 19.3542 103.865 18.7656 104.25 18.1719L104.812 18.6094C104.51 19.151 104.167 19.7292 103.781 20.3438C103.406 20.9583 102.984 21.5312 102.516 22.0625C102.047 22.5833 101.531 23.0156 100.969 23.3594C100.406 23.7031 99.7917 23.875 99.125 23.875C98.5 23.875 98.0208 23.6875 97.6875 23.3125C97.3542 22.9375 97.1875 22.4531 97.1875 21.8594C97.1875 21.1615 97.349 20.4323 97.6719 19.6719C97.9948 18.9115 98.3958 18.1615 98.875 17.4219C99.3646 16.6719 99.8906 15.9531 100.453 15.2656C101.026 14.5781 101.552 13.9531 102.031 13.3906L102.531 13.6094Z" fill="#B8860B"/>
<path d="M96.7031 13.6094C96.5677 13.8802 96.375 14.2344 96.125 14.6719C95.8854 15.1094 95.625 15.5938 95.3438 16.125C95.0625 16.6458 94.776 17.1927 94.4844 17.7656C94.2031 18.3385 93.9427 18.901 93.7031 19.4531C93.474 19.9948 93.2812 20.5104 93.125 21C92.9792 21.4792 92.9062 21.8854 92.9062 22.2188C92.9062 22.5521 92.9688 22.7708 93.0938 22.875C93.2292 22.9688 93.401 23.0156 93.6094 23.0156C93.9115 23.0156 94.2188 22.9271 94.5312 22.75C94.8542 22.5729 95.1667 22.3438 95.4688 22.0625C95.7812 21.7812 96.0833 21.4635 96.375 21.1094C96.6667 20.7552 96.9375 20.401 97.1875 20.0469C97.4479 19.6823 97.6823 19.3385 97.8906 19.0156C98.099 18.6823 98.276 18.401 98.4219 18.1719L98.9844 18.6094C98.8073 18.9427 98.599 19.3021 98.3594 19.6875C98.1198 20.0729 97.8542 20.4635 97.5625 20.8594C97.2812 21.2448 96.974 21.6198 96.6406 21.9844C96.3073 22.349 95.9531 22.6719 95.5781 22.9531C95.2135 23.2344 94.8281 23.4583 94.4219 23.625C94.0156 23.7917 93.599 23.875 93.1719 23.875C92.5469 23.875 92.0885 23.6875 91.7969 23.3125C91.5052 22.9375 91.3594 22.4531 91.3594 21.8594C91.3594 21.8177 91.3594 21.7292 91.3594 21.5938C91.3698 21.4479 91.3854 21.3333 91.4062 21.25C90.8854 21.9062 90.3854 22.4479 89.9062 22.875C89.4375 23.3021 88.9792 23.6406 88.5312 23.8906C88.0938 24.1406 87.6667 24.3125 87.25 24.4062C86.8438 24.5104 86.4531 24.5625 86.0781 24.5625C85.6823 24.5625 85.3073 24.4948 84.9531 24.3594C84.6094 24.2344 84.3073 24.0469 84.0469 23.7969C83.776 23.5469 83.5677 23.2396 83.4219 22.875C83.2656 22.5104 83.1875 22.0885 83.1875 21.6094C83.1875 21.0156 83.3229 20.3385 83.5938 19.5781C83.8542 18.8073 84.3229 17.9792 85 17.0938C85.5729 16.3333 86.1667 15.6927 86.7812 15.1719C87.4062 14.651 88.0156 14.2344 88.6094 13.9219C89.2135 13.599 89.7865 13.3698 90.3281 13.2344C90.8698 13.099 91.3542 13.0312 91.7812 13.0312C92.7396 13.0312 93.4635 13.1927 93.9531 13.5156C94.4427 13.8281 94.7396 14.3125 94.8438 14.9688C95.0521 14.7083 95.2708 14.4479 95.5 14.1875C95.7292 13.9271 95.9635 13.6615 96.2031 13.3906L96.7031 13.6094ZM91.9062 19.5469C92.0417 19.3281 92.2083 19.0521 92.4062 18.7188C92.6042 18.375 92.8125 18.026 93.0312 17.6719C93.25 17.3073 93.4635 16.9583 93.6719 16.625C93.8802 16.2917 94.0625 16.0104 94.2188 15.7812C94.2188 15.6875 94.2031 15.5365 94.1719 15.3281C94.151 15.1198 94.0833 14.9115 93.9688 14.7031C93.8542 14.4844 93.6719 14.2969 93.4219 14.1406C93.1719 13.9844 92.8229 13.9062 92.375 13.9062C92.0521 13.9062 91.6875 13.9583 91.2812 14.0625C90.8854 14.1562 90.4583 14.3229 90 14.5625C89.5521 14.7917 89.0885 15.099 88.6094 15.4844C88.1302 15.8698 87.651 16.349 87.1719 16.9219C86.4531 17.7865 85.8958 18.6562 85.5 19.5312C85.1146 20.3958 84.9219 21.1771 84.9219 21.875C84.9219 22.4688 85.0573 22.9271 85.3281 23.25C85.599 23.5729 85.9844 23.7344 86.4844 23.7344C87.0573 23.7344 87.5938 23.6094 88.0938 23.3594C88.5938 23.099 89.0625 22.7656 89.5 22.3594C89.9375 21.9531 90.3542 21.5052 90.75 21.0156C91.1458 20.5156 91.5312 20.026 91.9062 19.5469Z" fill="#B8860B"/>
<path d="M77.6875 20.5938C77.2083 21.1562 76.7344 21.6771 76.2656 22.1562C75.7969 22.625 75.3281 23.0312 74.8594 23.375C74.401 23.7083 73.9427 23.9688 73.4844 24.1562C73.026 24.3542 72.5625 24.4531 72.0938 24.4531C71.6979 24.4531 71.3385 24.3802 71.0156 24.2344C70.7031 24.099 70.4323 23.9062 70.2031 23.6562C69.9635 23.3958 69.7812 23.0833 69.6562 22.7188C69.5312 22.3438 69.4688 21.9271 69.4688 21.4688C69.4688 20.75 69.6302 20.0104 69.9531 19.25C70.2656 18.4896 70.6615 17.75 71.1406 17.0312C71.6302 16.3125 72.1667 15.6302 72.75 14.9844C73.3438 14.3385 73.9062 13.7656 74.4375 13.2656L75.1094 13.7344C74.7344 14.2865 74.3125 14.9115 73.8438 15.6094C73.3854 16.3073 72.9479 17.0312 72.5312 17.7812C72.125 18.5208 71.7812 19.2656 71.5 20.0156C71.2188 20.7552 71.0781 21.4427 71.0781 22.0781C71.0781 22.5052 71.1562 22.8698 71.3125 23.1719C71.4792 23.474 71.7917 23.625 72.25 23.625C72.75 23.625 73.2969 23.4271 73.8906 23.0312C74.4948 22.6354 75.1094 22.1198 75.7344 21.4844C76.3698 20.849 77 20.1354 77.625 19.3438C78.2604 18.5417 78.8594 17.7344 79.4219 16.9219C79.9844 16.1094 80.4948 15.3333 80.9531 14.5938C81.4219 13.8542 81.8021 13.224 82.0938 12.7031L83.2344 13.2656C82.6302 14.4531 82.0469 15.5625 81.4844 16.5938C80.9323 17.6146 80.4375 18.5365 80 19.3594C79.5729 20.1719 79.2292 20.8802 78.9688 21.4844C78.7188 22.0885 78.5938 22.5677 78.5938 22.9219C78.5938 23.0677 78.625 23.1875 78.6875 23.2812C78.75 23.375 78.849 23.4219 78.9844 23.4219C79.3698 23.4323 79.7917 23.2656 80.25 22.9219C80.7188 22.5781 81.1875 22.1458 81.6562 21.625C82.1354 21.1042 82.599 20.5365 83.0469 19.9219C83.5052 19.2969 83.9167 18.7135 84.2812 18.1719L84.8438 18.6094C84.7812 18.7135 84.651 18.9271 84.4531 19.25C84.2552 19.5729 84.0104 19.9427 83.7188 20.3594C83.4271 20.776 83.0938 21.2135 82.7188 21.6719C82.3438 22.1302 81.9479 22.5521 81.5312 22.9375C81.1146 23.3125 80.6823 23.625 80.2344 23.875C79.7865 24.1146 79.3438 24.2344 78.9062 24.2344C78.6354 24.2344 78.3906 24.1875 78.1719 24.0938C77.9635 24 77.7865 23.875 77.6406 23.7188C77.4948 23.5625 77.3802 23.3802 77.2969 23.1719C77.2135 22.9635 77.1719 22.7448 77.1719 22.5156C77.1719 22.2448 77.2135 21.9479 77.2969 21.625C77.3906 21.3021 77.5208 20.9583 77.6875 20.5938Z" fill="#B8860B"/>
<path d="M70.375 30.5625C69.5729 31 68.7917 31.3073 68.0312 31.4844C67.2812 31.6719 66.6042 31.7656 66 31.7656C65.0833 31.7656 64.3021 31.599 63.6562 31.2656C63.0208 30.9323 62.474 30.5 62.0156 29.9688C61.5573 29.4375 61.1667 28.8385 60.8438 28.1719C60.5312 27.5052 60.2448 26.8333 59.9844 26.1562C59.2344 26.5104 58.4635 26.7812 57.6719 26.9688C56.8906 27.1667 56.0833 27.2656 55.25 27.2656C54.1667 27.2656 53.1406 27.0938 52.1719 26.75C51.2135 26.4062 50.375 25.8854 49.6562 25.1875C48.9375 24.4896 48.3646 23.6146 47.9375 22.5625C47.5208 21.5 47.3125 20.2604 47.3125 18.8438C47.3125 17.3229 47.5104 15.8177 47.9062 14.3281C48.3021 12.8281 48.8594 11.401 49.5781 10.0469C50.3073 8.68229 51.1771 7.42188 52.1875 6.26562C53.2083 5.09896 54.3385 4.09375 55.5781 3.25C56.8281 2.39583 58.1667 1.72917 59.5938 1.25C61.0312 0.760417 62.5312 0.515625 64.0938 0.515625C65.0312 0.515625 65.8385 0.640625 66.5156 0.890625C67.2031 1.13021 67.7865 1.4375 68.2656 1.8125C68.7552 2.1875 69.151 2.59896 69.4531 3.04688C69.7656 3.48438 70.0052 3.89583 70.1719 4.28125C70.349 4.66667 70.4688 4.99479 70.5312 5.26562C70.5938 5.53646 70.6302 5.69271 70.6406 5.73438L69.8438 5.89062C69.8333 5.86979 69.8021 5.74479 69.75 5.51562C69.6979 5.27604 69.6042 4.98958 69.4688 4.65625C69.3333 4.3125 69.1406 3.94792 68.8906 3.5625C68.651 3.16667 68.3281 2.80208 67.9219 2.46875C67.526 2.13542 67.0365 1.85938 66.4531 1.64062C65.8802 1.42188 65.1979 1.3125 64.4062 1.3125C63.2083 1.3125 61.9948 1.55729 60.7656 2.04688C59.5365 2.53646 58.349 3.21354 57.2031 4.07812C56.0677 4.93229 55 5.9375 54 7.09375C53.0104 8.23958 52.1406 9.47917 51.3906 10.8125C50.651 12.1354 50.0677 13.5104 49.6406 14.9375C49.2135 16.3646 49 17.7812 49 19.1875C49 20.4271 49.1667 21.5052 49.5 22.4219C49.8333 23.3281 50.2812 24.0781 50.8438 24.6719C51.4167 25.276 52.0833 25.724 52.8438 26.0156C53.6146 26.3073 54.4323 26.4531 55.2969 26.4531C56.0573 26.4531 56.8021 26.3594 57.5312 26.1719C58.2708 25.9844 58.9896 25.724 59.6875 25.3906C59.4896 24.8906 59.2865 24.4167 59.0781 23.9688C58.8802 23.5104 58.651 23.1094 58.3906 22.7656C58.1406 22.4219 57.8542 22.151 57.5312 21.9531C57.2188 21.7448 56.849 21.6406 56.4219 21.6406C56.1198 21.6406 55.8333 21.6667 55.5625 21.7188C55.3021 21.7604 55.0677 21.8125 54.8594 21.875C54.6615 21.9375 54.5 21.9948 54.375 22.0469C54.2604 22.0885 54.2031 22.1094 54.2031 22.1094L53.8906 21.3594C53.9115 21.349 54.0052 21.3177 54.1719 21.2656C54.3385 21.2031 54.5521 21.1406 54.8125 21.0781C55.0729 21.0052 55.3698 20.9427 55.7031 20.8906C56.0469 20.8281 56.4062 20.7969 56.7812 20.7969C57.4375 20.7969 58.0052 20.8958 58.4844 21.0938C58.9635 21.2917 59.375 21.5625 59.7188 21.9062C60.0625 22.2396 60.3542 22.6302 60.5938 23.0781C60.8438 23.526 61.0729 24 61.2812 24.5C62.0208 24.0104 62.724 23.4479 63.3906 22.8125C64.0573 22.1771 64.6719 21.4948 65.2344 20.7656C65.8073 20.0365 66.3177 19.2656 66.7656 18.4531C67.224 17.6406 67.6146 16.8125 67.9375 15.9688C68.2604 15.125 68.5052 14.2812 68.6719 13.4375C68.849 12.5833 68.9375 11.7448 68.9375 10.9219C68.9375 10.026 68.8229 9.1875 68.5938 8.40625C68.3646 7.625 68.0417 6.94792 67.625 6.375C67.2083 5.79167 66.7031 5.33854 66.1094 5.01562C65.526 4.68229 64.8698 4.51562 64.1406 4.51562C63.3906 4.51562 62.6615 4.68229 61.9531 5.01562C61.2448 5.34896 60.6146 5.8125 60.0625 6.40625C59.5208 7 59.0833 7.70833 58.75 8.53125C58.4271 9.34375 58.2656 10.2292 58.2656 11.1875C58.2656 12.0833 58.4531 12.9427 58.8281 13.7656C59.2031 14.5885 59.8021 15.2917 60.625 15.875L60.2344 16.4062C59.7656 16.2396 59.3125 16.0052 58.875 15.7031C58.4375 15.3906 58.0521 15.0156 57.7188 14.5781C57.3854 14.1406 57.1146 13.6406 56.9062 13.0781C56.7083 12.5156 56.6094 11.8906 56.6094 11.2031C56.6094 10.0677 56.8125 9.04167 57.2188 8.125C57.625 7.19792 58.1719 6.40625 58.8594 5.75C59.5469 5.09375 60.3385 4.58854 61.2344 4.23438C62.1302 3.86979 63.0625 3.6875 64.0312 3.6875C64.9271 3.6875 65.7292 3.875 66.4375 4.25C67.1458 4.61458 67.7448 5.11979 68.2344 5.76562C68.724 6.41146 69.099 7.17188 69.3594 8.04688C69.6198 8.91146 69.75 9.84896 69.75 10.8594C69.75 11.7135 69.6562 12.5938 69.4688 13.5C69.2917 14.4062 69.0312 15.3073 68.6875 16.2031C68.3542 17.099 67.9479 17.9792 67.4688 18.8438C66.9896 19.6979 66.4427 20.5156 65.8281 21.2969C65.224 22.0781 64.5625 22.8073 63.8438 23.4844C63.1354 24.1615 62.3802 24.7552 61.5781 25.2656C61.7344 25.7031 61.8958 26.1354 62.0625 26.5625C62.2292 27 62.4115 27.4167 62.6094 27.8125C62.8073 28.2188 63.0312 28.5938 63.2812 28.9375C63.5417 29.2812 63.8385 29.5781 64.1719 29.8281C64.5156 30.0781 64.9115 30.276 65.3594 30.4219C65.8073 30.5677 66.3229 30.6406 66.9062 30.6406C67.3229 30.6406 67.7188 30.599 68.0938 30.5156C68.4688 30.4427 68.7917 30.3542 69.0625 30.25C69.3438 30.1562 69.5625 30.0677 69.7188 29.9844C69.8854 29.901 69.9688 29.8594 69.9688 29.8594L70.375 30.5625Z" fill="#B8860B"/>
<path d="M27.0938 20.4375C27.0729 20.5625 27.0573 20.6875 27.0469 20.8125C27.0365 20.9375 27.0312 21.0625 27.0312 21.1875C27.0312 21.5625 27.0833 21.9219 27.1875 22.2656C27.3021 22.599 27.4635 22.8958 27.6719 23.1562C27.8906 23.4062 28.1562 23.6042 28.4688 23.75C28.7917 23.8958 29.1562 23.9688 29.5625 23.9688C30.9271 23.9688 32.2448 23.5052 33.5156 22.5781C34.7865 21.651 36.0521 20.1823 37.3125 18.1719L37.8438 18.6406C37.1562 19.7865 36.4583 20.7552 35.75 21.5469C35.0417 22.3281 34.3333 22.9635 33.625 23.4531C32.9271 23.9427 32.2396 24.2969 31.5625 24.5156C30.8854 24.7344 30.2396 24.8438 29.625 24.8438C29.1771 24.8438 28.7031 24.7812 28.2031 24.6562C27.7031 24.5312 27.2396 24.3229 26.8125 24.0312C26.3958 23.7396 26.0521 23.349 25.7812 22.8594C25.5 22.3698 25.3594 21.7604 25.3594 21.0312C25.3594 20.25 25.4948 19.5 25.7656 18.7812C26.026 18.0521 26.3698 17.375 26.7969 16.75C27.224 16.125 27.7135 15.5573 28.2656 15.0469C28.8177 14.526 29.375 14.0833 29.9375 13.7188C30.5104 13.3542 31.0677 13.0729 31.6094 12.875C32.151 12.6667 32.6302 12.5625 33.0469 12.5625C33.3177 12.5625 33.5938 12.6042 33.875 12.6875C34.1562 12.7708 34.4062 12.901 34.625 13.0781C34.8542 13.2552 35.0365 13.4896 35.1719 13.7812C35.3177 14.0729 35.3906 14.4219 35.3906 14.8281C35.3906 15.3802 35.2604 15.901 35 16.3906C34.75 16.8698 34.4115 17.3177 33.9844 17.7344C33.5573 18.1406 33.0625 18.5104 32.5 18.8438C31.9375 19.1667 31.349 19.4427 30.7344 19.6719C30.1198 19.901 29.5 20.0833 28.875 20.2188C28.25 20.3542 27.6562 20.4271 27.0938 20.4375ZM27.2188 19.7656C27.9167 19.6927 28.5729 19.5469 29.1875 19.3281C29.8021 19.1094 30.3646 18.8438 30.875 18.5312C31.3854 18.2083 31.8385 17.8594 32.2344 17.4844C32.6406 17.1094 32.9792 16.7292 33.25 16.3438C33.5208 15.9583 33.7292 15.5885 33.875 15.2344C34.0208 14.8802 34.0938 14.5625 34.0938 14.2812C34.0938 14 34.0156 13.776 33.8594 13.6094C33.7135 13.4427 33.5365 13.3594 33.3281 13.3594C32.8698 13.3594 32.3542 13.526 31.7812 13.8594C31.2083 14.1823 30.6354 14.6354 30.0625 15.2188C29.4896 15.7917 28.9479 16.4688 28.4375 17.25C27.9375 18.0312 27.5312 18.8698 27.2188 19.7656Z" fill="#B8860B"/>
<path d="M17.7031 26.0156C17.026 26.0156 16.3385 25.9531 15.6406 25.8281C14.9531 25.7135 14.2552 25.5573 13.5469 25.3594C12.8385 25.1719 12.1302 24.9635 11.4219 24.7344C10.7135 24.5052 10.0156 24.2812 9.32812 24.0625C8.50521 24.5625 7.64583 24.9531 6.75 25.2344C5.85417 25.526 4.91146 25.6719 3.92188 25.6719C3.07812 25.6719 2.43229 25.5208 1.98438 25.2188C1.53646 24.9167 1.3125 24.5156 1.3125 24.0156C1.3125 23.3594 1.67708 22.8542 2.40625 22.5C3.13542 22.1458 4.23958 21.9688 5.71875 21.9688C6.36458 21.9688 7.01562 22.0156 7.67188 22.1094C8.32812 22.2031 8.99479 22.3229 9.67188 22.4688C10.3281 21.8958 10.9531 21.25 11.5469 20.5312C12.1406 19.8125 12.7188 19.0417 13.2812 18.2188C12.8542 18.2708 12.4219 18.3125 11.9844 18.3438C11.5469 18.3646 11.1042 18.375 10.6562 18.375C9.02083 18.375 7.5625 18.1823 6.28125 17.7969C5 17.401 3.91667 16.8646 3.03125 16.1875C2.14583 15.5 1.46875 14.6979 1 13.7812C0.541667 12.8542 0.3125 11.8594 0.3125 10.7969C0.3125 9.54688 0.552083 8.4375 1.03125 7.46875C1.51042 6.5 2.16667 5.6875 3 5.03125C3.84375 4.36458 4.83333 3.85938 5.96875 3.51562C7.10417 3.16146 8.32292 2.98438 9.625 2.98438C10.4479 2.98438 11.1979 3.04688 11.875 3.17188C12.5521 3.29688 13.1354 3.43229 13.625 3.57812C14.125 3.72396 14.5156 3.86458 14.7969 4C15.0781 4.13542 15.2344 4.20833 15.2656 4.21875L14.8594 4.92188C14.849 4.92188 14.7188 4.86458 14.4688 4.75C14.2188 4.625 13.875 4.49479 13.4375 4.35938C13 4.22396 12.4792 4.09896 11.875 3.98438C11.2708 3.86979 10.6198 3.8125 9.92188 3.8125C8.69271 3.8125 7.58854 3.99479 6.60938 4.35938C5.64062 4.71354 4.81771 5.20312 4.14062 5.82812C3.47396 6.45312 2.95833 7.1875 2.59375 8.03125C2.23958 8.86458 2.0625 9.75521 2.0625 10.7031C2.0625 11.7656 2.30729 12.7188 2.79688 13.5625C3.28646 14.3958 3.94271 15.1042 4.76562 15.6875C5.58854 16.2604 6.54167 16.6979 7.625 17C8.71875 17.3021 9.86458 17.4531 11.0625 17.4531C11.5521 17.4531 12.0312 17.4375 12.5 17.4062C12.9792 17.375 13.4531 17.3229 13.9219 17.25C14.6615 16.0938 15.375 14.8958 16.0625 13.6562C16.7604 12.4167 17.4531 11.2031 18.1406 10.0156C18.8281 8.82812 19.5208 7.70312 20.2188 6.64062C20.9167 5.56771 21.6406 4.63021 22.3906 3.82812C23.151 3.02604 23.9479 2.39062 24.7812 1.92188C25.6146 1.44271 26.5104 1.20312 27.4688 1.20312C27.8438 1.20312 28.1927 1.26562 28.5156 1.39062C28.8385 1.50521 29.1198 1.6875 29.3594 1.9375C29.599 2.17708 29.7865 2.48438 29.9219 2.85938C30.0573 3.23438 30.125 3.67188 30.125 4.17188C30.125 4.98438 29.9688 5.84375 29.6562 6.75C29.3438 7.64583 28.8906 8.54688 28.2969 9.45312C27.7031 10.349 26.9792 11.2344 26.125 12.1094C25.2708 12.974 24.3021 13.776 23.2188 14.5156C22.1354 15.2552 20.9479 15.9167 19.6562 16.5C18.3646 17.0729 16.9896 17.5208 15.5312 17.8438C14.8438 18.7917 14.1354 19.6875 13.4062 20.5312C12.6771 21.3646 11.9062 22.1198 11.0938 22.7969C11.8854 23.0052 12.6615 23.2292 13.4219 23.4688C14.1823 23.6979 14.901 23.9062 15.5781 24.0938C16.2656 24.2917 16.901 24.4531 17.4844 24.5781C18.0677 24.7135 18.5833 24.7812 19.0312 24.7812C19.6979 24.7812 20.3385 24.6667 20.9531 24.4375C21.5781 24.2083 22.1979 23.8021 22.8125 23.2188L23.4531 23.7188C23.4427 23.7292 23.3854 23.7969 23.2812 23.9219C23.1771 24.0365 23.0208 24.1771 22.8125 24.3438C22.6042 24.5208 22.3438 24.7031 22.0312 24.8906C21.7188 25.0885 21.349 25.2708 20.9219 25.4375C20.5052 25.6042 20.026 25.7396 19.4844 25.8438C18.9531 25.9583 18.3594 26.0156 17.7031 26.0156ZM27.5312 2.0625C26.9479 2.0625 26.3698 2.27083 25.7969 2.6875C25.224 3.10417 24.6458 3.67188 24.0625 4.39062C23.4792 5.09896 22.8854 5.9375 22.2812 6.90625C21.6875 7.86458 21.0729 8.89062 20.4375 9.98438C19.8021 11.0677 19.1406 12.1875 18.4531 13.3438C17.7656 14.5 17.0469 15.6354 16.2969 16.75C17.5469 16.4062 18.7344 15.9583 19.8594 15.4062C20.9948 14.8542 22.0417 14.2344 23 13.5469C23.9688 12.8594 24.8385 12.125 25.6094 11.3438C26.3906 10.5521 27.0521 9.74479 27.5938 8.92188C28.1458 8.09896 28.5677 7.28646 28.8594 6.48438C29.151 5.67188 29.2969 4.89583 29.2969 4.15625C29.2969 3.77083 29.25 3.44792 29.1562 3.1875C29.0625 2.91667 28.9323 2.69792 28.7656 2.53125C28.6094 2.36458 28.4219 2.24479 28.2031 2.17188C27.9948 2.09896 27.7708 2.0625 27.5312 2.0625ZM3.82812 24.8594C4.59896 24.8594 5.32812 24.75 6.01562 24.5312C6.70312 24.3229 7.36979 24.0312 8.01562 23.6562C7.32812 23.4583 6.66146 23.2969 6.01562 23.1719C5.38021 23.0469 4.76562 22.9844 4.17188 22.9844C3.46354 22.9844 2.94271 23.0885 2.60938 23.2969C2.28646 23.5052 2.125 23.7448 2.125 24.0156C2.125 24.099 2.14583 24.1875 2.1875 24.2812C2.23958 24.3854 2.32812 24.4792 2.45312 24.5625C2.57812 24.6458 2.75 24.7135 2.96875 24.7656C3.1875 24.8281 3.47396 24.8594 3.82812 24.8594Z" fill="#B8860B"/>
</svg>
